<?xml version="1.0" encoding="UTF-8"?>
<!--Generator: Adobe Illustrator 25.4.1, SVG Export Plug-In . SVG Version: 6.00 Build 0)-->
<svg xmlns="http://www.w3.org/2000/svg" viewBox="0 0 651.2 234.5" xml:space="preserve">
  <path d="M121.6 232c-2.4-.2-4.9-.4-7.3-.7-13.7-1.4-26.8-5.1-39.2-11.1-24.9-12.2-43.6-30.6-56-55.4-6.4-12.7-10.3-26.2-11.7-40.4C4 88 14.7 56.3 39.4 29.3 49.8 18.1 62 9.4 75.8 2.9c.2-.1.4-.2.8-.3 1 2.1 2 4.3 3 6.5C53 22 33.6 41.8 22.5 69.2c-11.1 27.3-11.5 55.1-1 82.7 18.1 47.6 65.3 76.8 115.2 72.6 52.5-4.4 94.3-44.6 102.2-95 8.3-53.1-21.4-98.4-58.8-117.6-8.4 16.8-16.7 33.7-25.1 50.5-8.4 16.9-16.8 33.7-25.2 50.7l-5.6-2.8C142 74.4 159.8 38.5 177.7 2.5c2 1 4 1.9 6 3 32.7 18.2 53.1 45.5 61.2 82.1 1.6 7 2.3 14.2 2.4 21.4.5 31.8-9.8 59.7-31 83.3-18.3 20.4-41.2 33-68.2 37.9-4.7.8-9.5 1.1-14.2 1.7-.5 0-8.7.1-12.3.1zM644.1 87.7c-.3-1.9-.6-3.8-1-5.6-3.8-18.1-20.6-31.7-39.1-31.7H580.4v81H602.8c2.1 0 4.3-.2 6.4-.4 15.7-2.1 29.3-14 33.3-29.4.6-2.4 1-5 1.4-7.5.2-2.2.2-4.3.2-6.4zM587 56.2c5.9 0 11.8-.1 17.7 0 15.9.4 29.8 12.1 32.8 27.6a34.55 34.55 0 0 1-33.9 41.5c-5.3.1-10.6 0-16 0h-1.3V56.1c.3.2.5.1.7.1zm-105 8.2c.1 0 .2.1.3.1v67h5.7v-81h-5.6c-11.1 22.3-22.3 44.7-33.6 67.2-11.3-22.6-22.5-45.1-33.5-67.3h-5.6v81.1h5.8v-67h.2l33.1 66.5c11.1-22.4 22.2-44.5 33.2-66.6zm-129.9 67.1c22.8 0 40.4-18.4 40.5-40.4.1-22.2-18.1-40.5-40.1-40.5-22.6 0-40.8 18-40.8 40.3-.2 21.5 17.1 40.6 40.4 40.6zm-34.6-41.8c.6-19 16.8-34 35.9-33.3 18.2.7 33.5 15.7 33.3 34.9-.2 19.7-16.3 34.3-34.7 34.3a34.75 34.75 0 0 1-34.5-35.9zm244-28.4c0-1.7 0-3.4.1-5.2.1-.9-.3-1.4-1.1-1.8-7.6-3.5-15.4-4.6-23.7-3.3-18.2 2.8-32.5 18.1-33.9 36.4-1 13.3 3.4 24.6 13.2 33.7a40.08 40.08 0 0 0 44.6 6.4c.3-.2.8-.5.8-.7.1-2.1 0-4.2 0-6.3-18.2 10.8-36.9 2.9-45.3-7.7-9.8-12.4-10.3-29.3-1.1-42 4.5-6.2 10.4-10.6 17.8-12.8 10-3.1 19.5-1.7 28.5 3.6 0-.2.1-.2.1-.3zM376.7 173.1c4.1-1.1 6.7-4.6 6.2-8.6a8 8 0 0 0-8.2-7.2h-11.6v26.9h2.6v-24.3c3.2 0 6.3-.1 9.4 0 3 .1 5.3 2.6 5.2 5.5-.1 2.9-2.5 5.2-5.5 5.3h-2.6v.4c2.2 4.2 4.4 8.5 6.6 12.7.1.2.4.5.7.5.8.1 1.5 0 2.4 0-2-3.8-3.8-7.4-5.7-11.1.3 0 .4 0 .5-.1zm75.4.4v10.8h2.5v-26.9h-2.5v13.3h-15.4v-13.3h-2.5v26.9h2.5v-10.8h15.4zm172.1 10.6c2.5.8 5.1.8 7.7.3 4-.7 6.1-3 6.4-6.6.3-4-1.2-6.1-5.4-7.5-1.6-.5-3.2-.9-4.7-1.4-1.5-.5-3.1-1-4.4-1.9-2.3-1.6-2.2-4.8.1-6.3 2.4-1.5 5.1-1.5 7.7-.8 2.1.5 3.4 2 3.6 4.3h2.3a5.9 5.9 0 0 0-3.9-5.9c-3.2-1.3-6.6-1.3-9.8-.1-2.8 1-3.9 3.3-4 6.1-.1 2.8 1.2 4.8 3.8 5.9 1.6.6 3.3 1.1 4.9 1.6 1.8.6 3.6 1.1 5.2 2 3.2 1.9 3 6.2-.4 7.9a10.1 10.1 0 0 1-6.6.8c-3.3-.6-4.6-1.9-5.1-5.1 0-.1-.1-.1-.1-.2h-2.2c-.3 3.3 1.5 5.9 4.9 6.9zm-80-24.2v-2.5h-20.5v26.9h20.5v-2.5h-17.9v-21.9h17.9zm-141.5 18a10.96 10.96 0 0 1 4.8-17.5c3.5-1.2 6.8-.5 10 1.6 0-1-.1-1.7 0-2.4.1-.8-.2-1.3-1-1.5-2-.4-4-1.2-5.9-1.2-9 .2-15.2 8.6-13 17.4 2.1 8.1 11.4 12.6 18.9 9 .4-.2.9-.6.9-1 .1-.9 0-1.8 0-2.8-6.2 3.3-11 2.7-14.7-1.6zm159.7.2c-3.2-3.5-3.7-8.9-1.2-13 1.6-2.7 4-4.3 7.1-5 3.1-.7 5.9.2 8.7 1.9 0-.8-.1-1.3 0-1.9.2-1.3-.4-1.8-1.5-2.3a13.8 13.8 0 0 0-17.4 18.9c3.2 6.7 11.2 9.7 17.8 6.7.4-.2 1-.6 1-1 .2-.9 0-1.8 0-2.8-6.1 3.1-10.8 2.6-14.5-1.5zM335 158.3c-.2-.4-.6-.6-.9-1-.2.3-.6.6-.7 1-2.9 6.2-11.1 23.4-12.3 26.1.6 0 .9-.1 1.3 0 1.3.3 2-.4 2.5-1.6 2.8-6.1 9-19.1 9.3-19.6 3.1 6.5 6 12.7 8.9 19 1.1 2.4 1.1 2.4 4 2.2-.1-.4-8.2-17.7-12.1-26.1zm262.5 26h2.6v-24.4h8.9v-2.5h-20.4v2.5h8.9v24.4zm-96.7-24.4h8.9v-2.5h-20.3v2.5h8.9v24.3h2.6c-.1-8-.1-16.1-.1-24.3zm-24.7-2.5h-2.4v26.9h2.4v-26.9zm64.2 14.9v-2.4h-10.6v2.4h10.6z"/>
</svg>